<?xml version="1.0" encoding="UTF-8" standalone="no"?>
<!-- Created with Inkscape (http://www.inkscape.org/) -->

<svg
   width="1024"
   height="256"
   viewBox="0 0 1024 256"
   version="1.1"
   id="svg1"
   xml:space="preserve"
   inkscape:export-filename="custom-racing.svg"
   inkscape:export-xdpi="96"
   inkscape:export-ydpi="96"
   sodipodi:docname="Unnamed document 1"
   xmlns:inkscape="http://www.inkscape.org/namespaces/inkscape"
   xmlns:sodipodi="http://sodipodi.sourceforge.net/DTD/sodipodi-0.dtd"
   xmlns="http://www.w3.org/2000/svg"
   xmlns:svg="http://www.w3.org/2000/svg"><sodipodi:namedview
     id="namedview1"
     pagecolor="#656565"
     bordercolor="#000000"
     borderopacity="0.25"
     inkscape:showpageshadow="2"
     inkscape:pageopacity="0.0"
     inkscape:pagecheckerboard="0"
     inkscape:deskcolor="#d1d1d1"
     inkscape:document-units="px"
     showguides="true" /><defs
     id="defs1" /><g
     inkscape:label="Layer 1"
     inkscape:groupmode="layer"
     id="layer1"><path
       style="font-style:italic;font-weight:500;font-size:212.442px;font-family:Futura;-inkscape-font-specification:'Futura Medium Italic';letter-spacing:-16.0658px;fill:#ff0707;stroke-width:1.10645"
       d="m 380.49278,155.52167 40.24781,67.52917 h -25.10301 l -37.96571,-65.86947 h -8.60971 l -8.09106,65.86947 H 317.2166 L 336.92558,62.88949 h 31.43063 q 15.35225,0 24.37689,2.800749 8.9209,2.593286 15.55971,9.543293 12.55151,12.862699 12.55151,33.194058 0,37.23959 -40.35154,47.09408 z m -22.61345,-70.537382 -6.22389,51.450792 h 10.8918 q 12.03285,0 17.94554,-2.28209 6.32762,-2.28209 10.58061,-7.77986 5.80896,-7.67612 5.80896,-18.04927 0,-12.136576 -7.05373,-17.738074 -6.95001,-5.601498 -21.99107,-5.601498 z m 171.16946,40.351532 -12.03284,97.71502 H 494.0913 l 1.34851,-10.58061 q -14.72987,12.8627 -30.49705,12.8627 -19.39778,0 -31.63809,-13.17389 -12.24031,-13.17389 -12.24031,-34.12765 0,-24.16942 14.00374,-39.62541 14.21121,-15.45598 36.40974,-15.45598 10.47688,0 17.84181,3.42313 7.46866,3.42314 15.24852,11.82539 l 1.55597,-12.8627 z m -27.90375,46.05676 q 0,-12.96643 -7.46867,-21.05748 -7.46866,-8.19479 -19.29405,-8.19479 -12.8627,0 -21.57614,10.06195 -8.71344,10.16569 -8.71344,24.89555 0,12.8627 7.2612,21.05749 7.2612,8.19478 18.67166,8.19478 12.65524,0 21.88734,-10.26941 9.2321,-10.47688 9.2321,-24.68809 z m 116.08805,-36.6172 -2.90448,23.33958 q -7.05374,-9.02464 -13.48509,-12.96643 -6.32761,-3.83807 -14.93732,-3.83807 -13.07017,0 -21.47241,9.64703 -8.40225,9.64702 -8.40225,24.79181 0,14.21121 7.88359,22.71719 7.98732,8.60971 20.64256,8.60971 12.13658,0 25.10301,-10.47688 l -3.00822,24.16943 q -13.27762,5.39404 -25.31047,5.39404 -21.47241,0 -34.9575,-14.00375 -13.38135,-14.00374 -13.38135,-36.30601 0,-22.92465 14.41867,-38.2769 14.5224,-15.45598 36.09854,-15.45598 17.63435,0 33.71272,12.65523 z m 39.11935,-55.911248 q 0,4.97911 -3.6306,8.60971 -3.6306,3.630601 -8.71345,3.630601 -5.08284,0 -8.81717,-3.734332 -3.6306,-3.941795 -3.6306,-9.024636 0,-5.082841 3.52687,-8.60971 3.6306,-3.6306 8.60971,-3.6306 5.08284,0 8.81717,3.838063 3.83807,3.734332 3.83807,8.920904 z m -7.15747,46.471688 -12.03285,97.71502 h -22.92465 l 12.03285,-97.71502 z m 38.80813,0 -1.03731,9.02464 Q 700.55461,122.95 714.45462,122.95 q 14.31494,0 22.92465,7.98732 8.40225,7.98732 8.40225,21.7836 0,7.46867 -1.24478,17.84181 l -6.53508,52.48811 h -22.82092 l 7.05374,-57.46722 q 0.41493,-3.21567 0.51866,-5.70523 0.20746,-2.48955 0.20746,-4.46045 0,-13.27763 -14.31494,-13.27763 -8.81717,0 -15.14479,5.39404 -5.18657,4.25299 -7.67613,10.37314 -1.34851,3.11195 -2.28209,7.67613 -0.93358,4.46045 -1.6597,10.37315 l -5.80896,47.09407 h -22.92465 l 12.03284,-97.71502 z m 176.14857,0 -12.03285,98.44114 q -1.14104,8.81718 -2.59328,15.35226 -1.34851,6.53508 -3.11195,10.99553 -3.6306,9.12837 -10.78807,15.66345 -13.90001,12.44777 -36.09854,12.44777 -22.92465,0 -37.13586,-12.03285 -7.2612,-6.01642 -10.16568,-13.69255 -2.90448,-7.05374 -2.90448,-19.8127 h 22.19853 q 0.82985,13.79628 7.05374,20.02017 6.22389,6.32761 19.29405,6.32761 14.10747,0 21.47241,-7.57239 7.36493,-7.46867 9.33583,-23.85823 l 1.6597,-13.38136 q -14.5224,11.09926 -30.49705,11.09926 -19.91643,0 -32.88286,-13.58882 -12.96643,-13.90001 -12.96643,-34.6463 0,-23.33957 15.04106,-38.69183 15.14479,-15.45598 37.86197,-15.45598 10.89181,0 17.63435,3.21567 7.36493,3.11195 15.24852,11.30673 l 1.45224,-12.13658 z m -26.34779,46.36796 q 0,-13.27763 -8.09105,-21.36868 -8.09105,-8.19479 -21.16121,-8.19479 -13.58882,0 -22.61346,9.95822 -8.9209,9.85449 -8.9209,24.79182 0,13.07016 7.67612,21.36868 7.77986,7.98732 20.53883,7.98732 14.21121,0 23.33958,-9.75076 9.23209,-9.85449 9.23209,-24.79181 z"
       id="text1"
       transform="matrix(1.1859866,0,-0.16460921,0.84317985,0,0)"
       aria-label="Racing" /><g
       id="g1"
       transform="matrix(1.9651006,-0.2338122,0.13814478,0.97442898,-403.18204,85.482992)"><g
         id="g52"
         transform="matrix(0.23432349,0,0,0.23851961,19.805658,0.70830146)">
	<g
   id="XMLID_1_"
   transform="translate(-121.37946,-9.0370598)">
		<g
   id="g41">
			<path
   d="m 1683.8601,379.1978 c -8.63,33.05 -17.6699,66 -26.4399,99.01 -1.11,3.33 -1.48,6.96 -3.03,10.1 -18.99,10.71 -39.12,19.59 -60.23,25.18 -21.75,5.92 -44.52,7.77 -66.9601,5.85 l 0.01,-0.15 c 9.66,-36.25 19.55,-72.45 29.05,-108.74 0.07,0.01 0.13,0.01 0.2,0.02 22.9801,2 46.29,-0.11 68.52,-6.32 20.62,-5.67 40.3201,-14.37 58.88,-24.95 z"
   id="path1" />
			<path
   d="m 1568.9501,621.2778 c 19.8501,-5.54 38.5601,-14.37 56.66,-24.1 -9.9299,36.2401 -19.4299,72.59 -29.2999,108.85 -19.03,10.51 -39,19.56 -60.0601,25.14 -21.79,5.98 -44.61,7.87 -67.1,5.91 0.01,-0.09 0.03,-0.18 0.05,-0.27 1.16,-7.06 3.6001,-13.87 5.27,-20.83 7.8,-29.26 15.74,-58.48 23.4701,-87.76 0.04,0 0.07,0.01 0.11,0.01 23.79,2.04 47.97,-0.2 70.9,-6.95 z"
   id="path2" />
			<path
   d="m 1585.6602,301.4678 c -9.85,36.25 -19.5701,72.55 -29.1901,108.86 -38.97,-3.87 -75.5,-20.51 -107.84,-41.95 -0.06,-0.04 -0.12,-0.08 -0.1801,-0.12 9.9401,-36.25 19.4301,-72.62 29.3101,-108.88 32.37,21.49 68.94,37.98 107.9001,42.09 z"
   id="path3" />
			<path
   fill="#ffffff"
   d="m 1556.4701,410.3278 -0.01,0.14 c -0.07,-0.01 -0.13,-0.01 -0.2,-0.02 -9.5,36.29 -19.39,72.49 -29.05,108.74 -39.0199,-3.82 -75.5399,-20.61 -107.9399,-42 9.91,-36.17 19.35,-72.48 29.26,-108.65 l 0.1,-0.16 c 32.3399,21.44 68.8699,38.08 107.8399,41.95 z"
   id="path4" />
			<path
   d="m 1527.2101,519.1878 -0.01,0.15 c -0.05,0 -0.1,-0.01 -0.1499,-0.01 -9.39,36.35 -19.4701,72.52 -28.99,108.83 -39.01,-3.93 -75.5,-20.66 -107.9601,-41.99 9.5,-35.22 18.88,-70.46 28.36,-105.68 0.11,-0.99 0.9801,-2.38 0.5701,-3.29 l 0.24,-0.01 c 32.4,21.39 68.92,38.18 107.9399,42 z"
   id="path5" />
			<path
   fill="#ffffff"
   d="m 1498.0602,628.1578 -0.01,0.07 c -0.04,0 -0.07,-0.01 -0.11,-0.01 -7.7301,29.28 -15.67,58.5 -23.4701,87.76 -1.6699,6.96 -4.11,13.77 -5.27,20.83 l -0.38,-0.06 c -15.58,-1 -30.84,-5.04 -45.5599,-10.05 -22.09,-7.71 -42.8,-18.91 -62.37,-31.64 8.5699,-31.52 16.91,-63.1 25.4299,-94.64 1.5,-4.4 1.8101,-9.36 4.0801,-13.41 -0.17,-0.21 -0.35,-0.41 -0.54,-0.6 l 0.24,-0.24 c 32.46,21.33 68.95,38.06 107.96,41.99 z"
   id="path6" />
			<path
   d="m 1423.2601,726.6978 c 14.72,5.01 29.98,9.05 45.5599,10.05 -9.6799,37.22 -20.0599,74.27 -29.6699,111.51 -22.34,-2.04 -44.1,-8.58 -64.51,-17.72 -15.15,-6.66 -29.38,-15.14 -43.4,-23.85 9.41,-37.15 19.8201,-74.08 29.54,-111.16 -0.04,-0.12 -0.09,-0.23 -0.14,-0.33 l 0.25,-0.14 c 19.57,12.73 40.2801,23.93 62.37,31.64 z"
   id="path7" />
			<path
   d="m 1448.5302,368.5378 c -9.91,36.17 -19.35,72.48 -29.26,108.65 l -0.24,0.01 c -0.13,-0.28 -0.39,-0.52 -0.8301,-0.68 -34.6799,-22.78 -65.7599,-50.41 -97.0199,-77.55 9.6599,-36.35 19.5299,-72.66 29.1599,-109.02 l 0.06,0.02 c -0.01,0.04 -0.02,0.08 -0.03,0.12 31.5899,27.51 63.19,55.25 98.16,78.45 z"
   id="path8" />
			<path
   fill="#ffffff"
   d="m 1419.0302,477.1978 c 0.41,0.91 -0.4601,2.3 -0.5701,3.29 -9.48,35.22 -18.86,70.46 -28.36,105.68 l -0.24,0.24 c -0.53,-0.56 -1.11,-1.08 -1.7,-1.52 -32.67,-21.7 -62.3101,-47.5 -91.79,-73.25 -1.71,-1.43 -3.48,-2.86 -4.55,-4.84 2.02,-3.95 2.4901,-8.5 3.8501,-12.71 6.72,-25.1 13.45,-50.2 20.1799,-75.3 1.92,-6.18 2.9,-12.71 5.39,-18.66 -0.12,-0.32 -0.27,-0.63 -0.4299,-0.93 l 0.37,-0.23 c 31.26,27.14 62.34,54.77 97.0199,77.55 0.44,0.16 0.7,0.4 0.8301,0.68 z"
   id="path9" />
			<path
   d="m 1389.8601,586.4078 c 0.1901,0.19 0.37,0.39 0.54,0.6 -2.27,4.05 -2.5801,9.01 -4.0801,13.41 -8.5199,31.54 -16.86,63.12 -25.4299,94.64 l -0.25,0.14 c -0.66,-1.25 -2.33,-1.65 -3.35,-2.54 -33.63,-22.49 -63.99,-49.37 -94.4501,-75.87 0.01,-0.02 0.01,-0.04 0.02,-0.06 8.87,-33.71 18.05,-67.34 26.99,-101.03 0.65,-2.83 2.17,-5.71 1.28,-8.61 l 0.6899,-0.29 c 1.0701,1.98 2.8401,3.41 4.55,4.84 29.48,25.75 59.12,51.55 91.79,73.25 0.5902,0.44 1.1702,0.96 1.7002,1.52 z"
   id="path10" />
			<path
   d="m 1379.5602,180.9178 c -9.62,36.38 -19.4901,72.69 -29.16,109.05 l -0.06,-0.02 c -31.5399,-27.34 -62.8199,-55.34 -97.9399,-78.07 0.01,-0.04 0.02,-0.08 0.03,-0.12 9.22,-36.41 19.3899,-72.61 28.96,-108.94 35.27,22.64 66.4999,50.83 98.17,78.1 z"
   id="path11" />
			<path
   fill="#ffffff"
   d="m 1350.3401,289.9478 c -9.63,36.36 -19.5,72.67 -29.1599,109.02 l -0.37,0.23 c -1.16,-2.06 -3.26,-3.4 -4.9701,-4.97 -28.7899,-25.12 -57.74,-50.28 -89.5399,-71.56 -1.03,-0.58 -1.9,-1.67 -3.14,-1.6 l -0.24,-1.09 c 4.0699,-12.81 7.0699,-26 10.72,-38.96 6.26,-23.08 12.26,-46.24 18.67,-69.29 l 0.12,0.03 c -0.01,0.04 -0.02,0.08 -0.03,0.12 35.1199,22.73 66.4,50.73 97.9399,78.07 z"
   id="path12" />
			<path
   d="m 1320.8102,399.1978 c 0.1599,0.3 0.3099,0.61 0.4299,0.93 -2.49,5.95 -3.47,12.48 -5.39,18.66 -6.73,25.1 -13.46,50.2 -20.1799,75.3 -1.36,4.21 -1.8301,8.76 -3.8501,12.71 l -0.6899,0.29 c -0.07,-0.21 -0.15,-0.42 -0.24,-0.63 -5.12,-3.59 -9.49,-8.18 -14.35,-12.12 -26.4301,-22.88 -53.14,-45.68 -82.55,-64.68 l 0.05,-0.08 c 8.86,-35.06 18.6899,-69.89 27.86,-104.87 0.4399,-1.19 0.36,-2.65 1.26,-3.64 1.24,-0.07 2.11,1.02 3.14,1.6 31.7999,21.28 60.75,46.44 89.5399,71.56 1.7101,1.57 3.81,2.91 4.9701,4.97 z"
   id="path13" />
			<path
   fill="#ffffff"
   d="m 1291.1301,507.0878 c 0.89,2.9 -0.63,5.78 -1.28,8.61 -8.9399,33.69 -18.12,67.32 -26.99,101.03 l -0.04,-0.01 c -31.5499,-27.56 -63.1,-55.42 -98.21,-78.44 9.9,-36.19 19.41,-72.5 29.25,-108.71 0.04,0.03 0.09,0.06 0.13,0.09 29.41,19 56.12,41.8 82.55,64.68 4.86,3.94 9.23,8.53 14.35,12.12 0.09,0.21 0.1701,0.42 0.24,0.63 z"
   id="path14" />
			<path
   d="m 1262.8201,616.7178 c -9.99,37.06 -19.8799,74.14 -29.83,111.22 -31.67,-27.2 -62.88,-55.32 -98.03,-78.06 9.4501,-37.16 19.87,-74.08 29.55,-111.19 -0.05,-0.05 -0.1,-0.1 -0.15,-0.15 l 0.25,-0.26 c 35.11,23.02 66.66,50.88 98.21,78.44 z"
   id="path15" />
			<path
   d="m 1252.3102,211.7278 c -6.41,23.05 -12.41,46.21 -18.67,69.29 -3.65,12.96 -6.65,26.15 -10.72,38.96 -1.3501,0.05 -2.29,-1.07 -3.3501,-1.67 -31.5199,-20.26 -66.8799,-36.09 -104.5299,-39.71 l 0.01,-0.11 c 0.06,0 0.11,0 0.1699,0.01 9.65,-36.29 19.36,-72.57 29.17,-108.81 l 0.01,-0.09 c 38.99,4.06 75.5201,20.68 107.9101,42.13 z"
   id="path16" />
			<path
   fill="#ffffff"
   d="m 1222.9202,319.9778 0.24,1.09 c -0.9,0.99 -0.8201,2.45 -1.26,3.64 -9.17,34.98 -19,69.81 -27.86,104.87 -32.4401,-21.38 -68.9501,-38.27 -108,-42.07 l 0.01,-0.08 c 9.5,-36.32 19.5499,-72.5 28.99,-108.83 37.65,3.62 73.01,19.45 104.5299,39.71 1.06,0.6 2,1.72 3.3501,1.67 z"
   id="path17" />
			<path
   d="m 1194.0402,429.5778 -0.05,0.08 c -0.04,-0.03 -0.09,-0.06 -0.13,-0.09 -9.84,36.21 -19.35,72.52 -29.25,108.71 l -0.25,0.26 c -2.7999,-2.85 -6.85,-4.51 -10.1799,-6.82 -29.5901,-18.04 -62.4701,-31.94 -97.2301,-35.27 l 0.01,-0.12 c 9.3301,-36.36 19.41,-72.53 28.9701,-108.83 0.04,0 0.07,0.01 0.11,0.01 39.0498,3.8 75.5598,20.69 107.9999,42.07 z"
   id="path18" />
			<path
   d="m 1162.1101,59.8678 c 3.76,0.41 7.55,0.53 11.34,0.77 -9.5099,36.37 -19.35,72.66 -29.1399,108.95 0.03,0 0.06,0.01 0.09,0.01 l -0.01,0.09 c -43.9401,-4.52 -88.25,8.33 -126.04,30.3 -9.64,36.21 -19.55,72.36 -29,108.62 18.04,-10.17 37.2001,-18.5 57.2001,-23.95 22.22,-6.19 45.5299,-8.24 68.5,-6.17 l -0.01,0.11 c -9.4401,36.33 -19.49,72.51 -28.99,108.83 -23.4501,-2.23 -47.28,0.05 -69.9401,6.49 -19.41,5.42 -38.03,13.54 -55.6,23.38 -2.15,4.39 -2.68,9.55 -4.22,14.24 -8.43,31.59 -17.03,63.13 -25.33,94.75 18.7,-10.29 38.41,-18.94 59.1,-24.35 21.74,-5.8 44.4901,-7.73 66.9,-5.61 l -0.01,0.12 c -0.07,-0.01 -0.1399,-0.01 -0.21,-0.02 -9.7999,37.06 -20,74.02 -29.64,111.12 -22.84,-1.92 -46.02,-0.0699 -68.12,6.09 -20.2599,5.53 -39.77,13.83 -57.95,24.3 L 1047.8103,90.5977 c 34.7299,-19.4399 74.1598,-32.2499 114.2998,-30.7299 z"
   id="path19"
   sodipodi:nodetypes="cccccccccccccccccccccccc" />
			<path
   fill="#ffffff"
   d="m 1018.3501,199.9878 c 37.79,-21.97 82.1,-34.82 126.04,-30.3 -9.8101,36.24 -19.52,72.52 -29.17,108.81 -0.06,-0.01 -0.11,-0.01 -0.1699,-0.01 -22.9701,-2.07 -46.28,-0.02 -68.5,6.17 -20,5.45 -39.16,13.78 -57.2001,23.95 9.45,-36.26 19.36,-72.41 29,-108.62 z"
   id="path20" />
			<path
   fill="#ffffff"
   d="m 1086.0502,387.4278 -0.01,0.08 c -0.04,0 -0.07,-0.01 -0.11,-0.01 -9.5601,36.3 -19.64,72.47 -28.9701,108.83 -22.4099,-2.12 -45.16,-0.19 -66.9,5.61 -20.69,5.41 -40.4,14.06 -59.1,24.35 8.3,-31.62 16.9,-63.16 25.33,-94.75 1.54,-4.69 2.07,-9.85 4.22,-14.24 17.57,-9.84 36.19,-17.96 55.6,-23.38 22.66,-6.44 46.49,-8.72 69.9401,-6.49 z"
   id="path21" />
			
			
			
			
			
			
			
			
			
			
			
			
			
			
			
			
			
			
			
			
		</g>
		<g
   id="g51">
			<path
   fill="none"
   stroke="#000000"
   stroke-width="0.0938"
   d="m 1047.8102,90.5978 c 34.73,-19.44 74.1599,-32.25 114.2999,-30.73 3.76,0.41 7.55,0.53 11.34,0.77 -9.5099,36.37 -19.35,72.66 -29.1399,108.95 0.03,0 0.06,0.01 0.09,0.01 38.99,4.06 75.52,20.68 107.91,42.13 -6.41,23.05 -12.41,46.21 -18.67,69.29 -3.65,12.96 -6.65,26.15 -10.72,38.96 -1.3501,0.05 -2.29,-1.07 -3.3501,-1.67 -31.5199,-20.26 -66.8799,-36.09 -104.5299,-39.71 -9.4401,36.33 -19.49,72.51 -28.99,108.83 -23.4501,-2.23 -47.28,0.05 -69.9401,6.49 -19.41,5.42 -38.03,13.54 -55.6,23.38 -2.15,4.39 -2.68,9.55 -4.22,14.24 -8.43,31.59 -17.03,63.13 -25.33,94.75 18.7,-10.29 38.41,-18.94 59.1,-24.35 21.74,-5.8 44.4901,-7.73 66.9,-5.61 9.3301,-36.36 19.41,-72.53 28.9701,-108.83 0.04,0 0.07,0.01 0.11,0.01 39.0499,3.8 75.5599,20.69 108,42.07 8.86,-35.06 18.6899,-69.89 27.86,-104.87 0.4399,-1.19 0.36,-2.65 1.26,-3.64 1.24,-0.07 2.11,1.02 3.14,1.6 31.7999,21.28 60.75,46.44 89.5399,71.56 1.7101,1.57 3.8101,2.91 4.9701,4.97 0.1599,0.3 0.3099,0.61 0.4299,0.93 -2.49,5.95 -3.47,12.48 -5.39,18.66 -6.73,25.1 -13.46,50.2 -20.1799,75.3 -1.36,4.21 -1.8301,8.76 -3.8501,12.71 1.0701,1.98 2.8401,3.41 4.55,4.84 29.48,25.75 59.12,51.55 91.79,73.25 0.59,0.44 1.1699,0.96 1.7,1.52 0.1901,0.19 0.37,0.39 0.54,0.6 -2.27,4.05 -2.5801,9.01 -4.0801,13.41 -8.5199,31.54 -16.86,63.12 -25.4299,94.64 19.5699,12.73 40.28,23.93 62.37,31.64 14.72,5.01 29.98,9.05 45.5599,10.05 -9.6799,37.22 -20.0599,74.27 -29.6699,111.51 -22.34,-2.04 -44.1,-8.58 -64.51,-17.72 -15.15,-6.66 -29.38,-15.14 -43.4,-23.85 9.41,-37.15 19.8201,-74.08 29.54,-111.16 -0.04,-0.12 -0.09,-0.23 -0.14,-0.33 -0.66,-1.25 -2.33,-1.65 -3.35,-2.54 -33.63,-22.49 -63.99,-49.37 -94.4501,-75.87 0.01,-0.02 0.01,-0.04 0.02,-0.06 8.87,-33.71 18.05,-67.34 26.99,-101.03 0.65,-2.83 2.17,-5.71 1.28,-8.61 -0.07,-0.21 -0.15,-0.42 -0.24,-0.63 -5.12,-3.59 -9.49,-8.18 -14.35,-12.12 -26.4301,-22.88 -53.14,-45.68 -82.55,-64.68 -0.04,-0.03 -0.09,-0.06 -0.13,-0.09 -9.84,36.21 -19.35,72.52 -29.25,108.71 35.11,23.02 66.66,50.88 98.21,78.44 -9.99,37.06 -19.8799,74.14 -29.83,111.22 -31.67,-27.2 -62.88,-55.32 -98.03,-78.06 9.4501,-37.16 19.87,-74.08 29.55,-111.19 l -0.15,-0.15 c -2.7999,-2.85 -6.85,-4.51 -10.1799,-6.82 -29.5901,-18.04 -62.4701,-31.94 -97.2301,-35.27 -0.07,-0.01 -0.1399,-0.01 -0.21,-0.02 -9.7999,37.06 -20,74.02 -29.64,111.12 -22.84,-1.92 -46.02,-0.0699 -68.12,6.09 -20.2599,5.53 -39.77,13.83 -57.95,24.3"
   id="path42"
   sodipodi:nodetypes="ccccccccccccccccccccccccccccccccccccccccccccccccccccccccccccccc" />
			<path
   fill="none"
   stroke="#000000"
   stroke-width="0.0938"
   d="m 1144.3901,169.6878 c -43.9401,-4.52 -88.25,8.33 -126.04,30.3 -9.64,36.21 -19.55,72.36 -29,108.62 18.04,-10.17 37.2001,-18.5 57.2001,-23.95 22.22,-6.19 45.5299,-8.24 68.5,-6.17 0.06,0 0.11,0 0.1699,0.01 9.65,-36.29 19.36,-72.57 29.17,-108.81 z"
   id="path43" />
			
			<path
   fill="none"
   stroke="#000000"
   stroke-width="0.0938"
   d="m 1252.4302,211.7578 c 9.22,-36.41 19.3899,-72.61 28.96,-108.94 35.27,22.64 66.5,50.83 98.17,78.1 -9.62,36.38 -19.4901,72.69 -29.16,109.05 -0.01,0.04 -0.02,0.08 -0.03,0.12 31.59,27.51 63.1901,55.25 98.16,78.45 -9.91,36.17 -19.35,72.48 -29.26,108.65 32.4,21.39 68.92,38.18 107.9399,42 9.66,-36.25 19.55,-72.45 29.05,-108.74 0.07,0.01 0.13,0.01 0.2,0.02 22.9801,2 46.29,-0.11 68.52,-6.32 20.62,-5.67 40.3201,-14.37 58.88,-24.95 -8.63,33.05 -17.6699,66 -26.4399,99.01 -1.11,3.33 -1.48,6.96 -3.03,10.1 -18.99,10.71 -39.12,19.59 -60.23,25.18 -21.75,5.92 -44.52,7.77 -66.9601,5.85 -0.05,0 -0.1,-0.01 -0.1499,-0.01 -9.39,36.35 -19.4701,72.52 -28.99,108.83 -39.01,-3.93 -75.5,-20.66 -107.9601,-41.99 9.5,-35.22 18.88,-70.46 28.36,-105.68 0.11,-0.99 0.9801,-2.38 0.5701,-3.29 -0.13,-0.28 -0.39,-0.52 -0.8301,-0.68 -34.6799,-22.78 -65.7599,-50.41 -97.0199,-77.55 9.6599,-36.35 19.5299,-72.66 29.1599,-109.02 -31.5399,-27.34 -62.8199,-55.34 -97.9399,-78.07 0.01,-0.04 0.02,-0.08 0.03,-0.12 z"
   id="path45" />
			
			<path
   fill="none"
   stroke="#000000"
   stroke-width="0.0938"
   d="m 1448.6301,368.3778 c -0.06,-0.04 -0.12,-0.08 -0.1801,-0.12 9.9401,-36.25 19.4301,-72.62 29.3101,-108.88 32.37,21.49 68.9399,37.98 107.9,42.09 -9.85,36.25 -19.5701,72.55 -29.1901,108.86 -38.9699,-3.87 -75.4999,-20.51 -107.8399,-41.95 z"
   id="path47" />
			
			
			
			<path
   fill="none"
   stroke="#000000"
   stroke-width="0.0938"
   d="m 1498.0502,628.2278 c 23.7899,2.04 47.97,-0.2 70.8999,-6.95 19.8501,-5.54 38.5601,-14.37 56.66,-24.1 -9.9299,36.2401 -19.4299,72.59 -29.2999,108.85 -19.03,10.51 -39,19.56 -60.0601,25.14 -21.79,5.98 -44.61,7.87 -67.1,5.91 0.01,-0.09 0.03,-0.18 0.05,-0.27 1.16,-7.06 3.6001,-13.87 5.27,-20.83 7.8,-29.26 15.74,-58.48 23.4701,-87.76 0.04,0 0.07,0.01 0.1101,0.01 z"
   id="path51" />
		</g>
	</g>
</g><path
         d="m 392.77119,62.986568 c -2.02222,7.883073 -4.14048,15.742295 -6.19549,23.615827 -0.2601,0.79427 -0.3468,1.660096 -0.71,2.409048 -4.44981,2.554545 -9.16674,4.672599 -14.11331,6.005924 -5.09653,1.412036 -10.43208,1.853297 -15.69032,1.39534 l 0.002,-0.03578 c 2.26357,-8.646336 4.58102,-17.280746 6.8071,-25.936623 0.0164,0.0024 0.0305,0.0024 0.0469,0.0048 5.38478,0.477039 10.84684,-0.02624 16.05585,-1.507444 4.83205,-1.352434 9.44824,-3.427554 13.79727,-5.951092 z"
         id="path1-1"
         style="fill:#ffffff;fill-opacity:1;stroke-width:0.236412" /><path
         d="m 379.09588,115.00417 c -2.02222,7.88307 -4.14048,15.74229 -6.19549,23.61582 -0.2601,0.79427 -0.3468,1.6601 -0.71,2.40905 -4.44981,2.55455 -9.16674,4.6726 -14.11331,6.00593 -5.09653,1.41203 -10.43208,1.85329 -15.69032,1.39534 l 0.002,-0.0358 c 2.26357,-8.64634 4.58102,-17.28075 6.8071,-25.93663 0.0164,0.002 0.0305,0.002 0.0469,0.005 5.38478,0.47704 10.84684,-0.0262 16.05585,-1.50744 4.83205,-1.35243 9.44824,-3.42755 13.79727,-5.95109 z"
         id="path1-1-7"
         style="fill:#ffffff;fill-opacity:1;stroke-width:0.236412" /><path
         d="m 365.55488,166.89764 c -2.02222,7.88307 -4.14048,15.74229 -6.19549,23.61582 -0.2601,0.79427 -0.3468,1.6601 -0.71,2.40905 -4.44981,2.55455 -9.16674,4.6726 -14.11331,6.00593 -5.09653,1.41203 -10.43208,1.85329 -15.69032,1.39534 l 0.002,-0.0358 c 2.26357,-8.64634 4.58102,-17.28075 6.8071,-25.93663 0.0164,0.002 0.0305,0.002 0.0469,0.005 5.38478,0.47704 10.84684,-0.0262 16.05585,-1.50744 4.83205,-1.35243 9.44824,-3.42755 13.79727,-5.95109 z"
         id="path1-1-7-9"
         style="fill:#ffffff;fill-opacity:1;stroke-width:0.236412" /><path
         d="m 310.36171,164.73331 c 0.045,0.0463 0.0877,0.095 0.12797,0.14635 -0.53795,0.98788 -0.61143,2.1977 -0.96691,3.27094 -2.01905,7.69319 -3.9955,15.39613 -6.02641,23.08445 l -0.0593,0.0341 c -0.15642,-0.3049 -0.55218,-0.40247 -0.7939,-0.61956 -7.96968,-5.48573 -15.16444,-12.04224 -22.38291,-18.50609 0.002,-0.005 0.002,-0.0102 0.005,-0.0146 2.10202,-8.22247 4.27751,-16.42546 6.39612,-24.64306 0.15404,-0.69029 0.51426,-1.39279 0.30335,-2.10015 l 0.16319,-0.0707 c 0.25359,0.48296 0.67305,0.83177 1.07826,1.18056 6.98622,6.28091 14.01034,12.574 21.75252,17.86702 0.13987,0.10734 0.27732,0.23417 0.40292,0.37077 z"
         id="path10-6"
         style="fill:#ffffff;fill-opacity:1;stroke-width:0.240424" /><path
         d="m 264.33231,126.95392 -0.0118,0.0196 c -0.009,-0.007 -0.0212,-0.0147 -0.0307,-0.0221 -2.32197,8.88065 -4.56608,17.78581 -6.9022,26.66155 l -0.059,0.0638 c -0.6607,-0.69897 -1.61641,-1.10609 -2.40217,-1.67263 -6.98245,-4.42439 -14.74122,-7.83341 -22.94361,-8.6501 l 0.002,-0.0294 c 2.20164,-8.91743 4.58021,-17.78827 6.83614,-26.69098 0.009,0 0.0165,0.002 0.026,0.002 9.21468,0.93197 17.83001,5.07431 25.48499,10.31784 z"
         id="path18-4"
         style="fill:#ffffff;fill-opacity:1;stroke-width:0.240568" /><path
         d="m 337.73826,60.543311 c -2.32214,8.627255 -4.53416,17.287902 -6.8563,25.915156 l -0.0562,0.0024 c -0.0305,-0.06678 -0.0914,-0.12403 -0.19451,-0.162193 -8.12636,-5.433492 -15.40913,-12.023789 -22.73408,-18.497211 2.26354,-8.670188 4.57631,-17.330835 6.83284,-26.003408 l 0.0141,0.0048 c -0.002,0.0095 -0.005,0.01908 -0.007,0.02862 7.40226,6.561674 14.80691,13.178208 23.0012,18.711863 z"
         id="path8-0"
         style="fill:#ffffff;fill-opacity:1;stroke-width:0.236412" /><path
         d="m 291.66212,23.13796 c -1.50202,5.567167 -2.90796,11.160902 -4.37482,16.735316 -0.85528,3.130173 -1.55825,6.315897 -2.51195,9.409841 -0.31636,0.01208 -0.5366,-0.258432 -0.78501,-0.403348 -7.38585,-4.89331 -15.67153,-8.716662 -24.49381,-9.590985 l 0.002,-0.02657 c 0.0141,0 0.0258,0 0.0398,0.0024 2.26122,-8.764968 4.5365,-17.527521 6.83521,-26.280412 l 0.002,-0.02174 c 9.13627,0.980595 17.69613,4.994752 25.28587,10.175478 z"
         id="path16-4"
         style="fill:#ffffff;fill-opacity:1;stroke-width:0.237897" /></g></g></svg>
