<?xml version="1.0" encoding="UTF-8" standalone="no"?>
<!-- Created with Inkscape (http://www.inkscape.org/) -->

<svg
   width="180mm"
   height="120mm"
   viewBox="0 0 180 120"
   version="1.1"
   id="svg1"
   xml:space="preserve"
   sodipodi:docname="shooter.svg"
   xmlns:sodipodi="http://sodipodi.sourceforge.net/DTD/sodipodi-0.dtd"
   xmlns="http://www.w3.org/2000/svg"
   xmlns:svg="http://www.w3.org/2000/svg"><sodipodi:namedview
     id="namedview1"
     pagecolor="#ffffff"
     bordercolor="#000000"
     borderopacity="0.25"
     /><defs
     id="defs1" /><g
     id="layer1"><path
       style="fill:#ffffff"
       d="m 15.680067,114.94747 c -0.668041,-0.40733 -1.081447,-0.97871 -1.326613,-1.83355 l -0.172916,-0.60293 2.351335,-7.07331 c 1.293234,-3.89033 2.351335,-7.127209 2.351335,-7.193069 v -0.11974 l -7.014244,-0.055 -7.0142435,-0.055 -0.614623,-0.36202 c -0.762835,-0.44933 -1.286173,-1.13491 -1.439923,-1.88632 l -0.117606,-0.57478 0.117334,-2.13154 0.117334,-2.13154 0.305601,-1.52525 c 1.249865,-6.23808 3.225252,-10.34661 9.1499115,-19.03054 4.497018,-6.5914 5.850599,-9.02609 6.641015,-11.94522 l 0.308857,-1.14065 v -1.90063 -1.90064 l -0.315059,-1.17658 c -0.392089,-1.46425 -1.304649,-3.41439 -2.364176,-5.05226 l -0.810407,-1.25276 -4.041027,-0.0605 -4.0410275,-0.0605 -0.632929,-0.37182 -0.63293,-0.37181 -0.407893,-0.60527 -0.407894,-0.60527 v -0.80286 -0.80286 l 4.4552835,-10.39478 4.455284,-10.39478 0.357536,-0.45453 c 0.196645,-0.24999 0.615075,-0.58943 0.929845,-0.7543 l 0.572309,-0.29976 2.244126,-0.1039 2.244127,-0.1039 1.198242,-3.55945 1.198242,-3.55945 0.358471,-0.39611 c 0.19716,-0.21786 0.603032,-0.53031 0.901938,-0.69435 l 0.543465,-0.29824 18.417869,-0.0494 18.41787,-0.0494 -0.47074,-0.71133 c -0.25891,-0.39124 -0.5737,-1.01082 -0.69953,-1.37686 l -0.2288,-0.66551 0.14466,-0.64138 c 0.1829,-0.81098 0.67865,-1.47994 1.41726,-1.91247 l 0.5772,-0.33801 0.70292,0.01 0.70292,0.01 0.54699,0.28286 c 0.65071,0.3365 1.03484,0.8321 2.63969,3.40571 l 1.21341,1.94589 h 1.07406 1.07406 l -0.47349,-0.71549 c -0.26041,-0.39351 -0.57644,-1.01496 -0.70227,-1.381 l -0.2288,-0.66551 0.14466,-0.64138 c 0.1829,-0.81098 0.67865,-1.47994 1.41727,-1.91247 l 0.57719,-0.33801 0.70292,0.01 0.70292,0.01 0.54699,0.28286 c 0.65071,0.3365 1.03485,0.8321 2.63969,3.40571 l 1.21341,1.94589 h 1.07406 1.07406 l -0.47348,-0.71549 c -0.26042,-0.39351 -0.57645,-1.01496 -0.70228,-1.381 l -0.2288,-0.66551 0.14466,-0.64138 c 0.1829,-0.81098 0.67865,-1.47994 1.41727,-1.91247 l 0.57719,-0.33801 0.70292,0.01 0.70292,0.01 0.54699,0.28286 c 0.65071,0.3365 1.03485,0.8321 2.63969,3.40571 l 1.21341,1.94589 h 39.422004 39.42199 l 0.0862,-1.78983 0.0862,-1.78982 0.35508,-0.60798 0.35508,-0.60798 0.60527,-0.4079 0.60528,-0.40789 h 0.85152 0.85153 l 0.60527,0.40789 0.60527,0.4079 0.35509,0.60798 0.35508,0.60798 0.0851,1.76673 0.0851,1.76674 1.76674,0.0851 1.76673,0.0851 0.60798,0.35508 0.60798,0.35508 0.39601,0.58764 0.39601,0.58764 0.11421,0.94118 0.1142,0.94118 -0.0571,8.5076 -0.0571,8.5076 -0.36203,0.61462 c -0.46575,0.79072 -1.1151,1.26829 -2.00515,1.47472 l -0.71004,0.16468 -30.79871,0.004 -30.79871,0.004 -2.57108,6.42468 -2.57109,6.42467 -0.35981,0.45743 c -0.19789,0.25158 -0.60772,0.58562 -0.91073,0.74231 l -0.55091,0.28489 -19.278604,2.14357 -19.2786,2.14356 -0.14347,0.14736 c -0.28152,0.28917 -0.87309,2.02059 -1.15244,3.373 l -0.284,1.37492 v 1.29675 c 0,1.71473 0.44083,4.61112 1.09666,7.20537 l 0.53148,2.10239 4.9e-4,0.74254 4.9e-4,0.74253 -0.4079,0.60528 -0.40789,0.60527 -0.63293,0.37181 -0.63293,0.37181 -8.03884,0.0905 -8.03885,0.0905 -4.08901,12.24665 -4.08901,12.24665 -0.3616,0.39752 c -0.19888,0.21864 -0.60615,0.53173 -0.90506,0.69576 l -0.54347,0.29824 -6.591809,0.0905 -6.591813,0.0905 -2.586508,7.757739 c -2.732921,8.19689 -2.833686,8.43896 -3.743822,8.9939 l -0.578456,0.35271 H 17.0731 16.258543 Z m 26.409209,-42.745739 6.67355,-20.02069 -2.04265,-3.09379 -2.04265,-3.0938 -11.087034,-0.01 c -6.097866,-0.005 -11.08703,0.0332 -11.08703,0.0858 0,0.0526 0.234193,0.56172 0.520428,1.13133 0.800149,1.59232 1.447081,3.53546 1.74408,5.23858 l 0.269671,1.54641 v 1.31017 1.31017 l -0.278288,1.59582 c -0.733875,4.20835 -2.30865,7.31309 -7.71421,15.2089 -5.799001,8.4705 -7.6031295,12.3615 -8.5340615,18.40557 l -0.07685,0.49894 13.4907465,-0.0464 13.490748,-0.0464 z m 17.64308,-6.36193 c -0.0544,-0.224 -0.24064,-1.14038 -0.41378,-2.03639 l -0.3148,-1.62912 -0.0131,-2.71519 -0.0131,-2.71519 0.33236,-1.41743 c 0.41307,-1.76162 0.66352,-1.63987 -2.62926,-1.27811 l -2.79397,0.30695 -1.93463,5.81316 c -1.06405,3.19724 -1.93464,5.87288 -1.93464,5.94588 v 0.13272 h 4.90697 4.90697 z m 18.49751,-19.83076 23.777654,-2.66007 1.77168,-4.43481 1.77167,-4.43482 -18.489834,-0.0905 -18.48983,-0.0905 -0.63355,-0.36487 -0.63354,-0.36488 -2.62469,-3.929 -2.62468,-3.929 -21.61206,0.0401 -21.61205,0.0401 -3.050931,7.12055 c -1.678011,3.91631 -3.05093,7.15417 -3.05093,7.19526 0,0.0411 7.432835,0.0767 16.517412,0.079 l 16.517409,0.004 0.71004,0.16468 c 0.39053,0.0906 0.91999,0.31646 1.17659,0.50199 l 0.46654,0.33731 2.5203,3.74749 2.52031,3.74749 0.64741,-0.01 c 0.35609,-0.005 11.34737,-1.2069 24.42508,-2.66994 z m -9.04806,-23.20585 -3.62462,-5.79324 -18.93066,0.0461 -18.930668,0.0461 -0.424045,1.2571 c -0.233225,0.6914 -0.424045,1.32268 -0.424045,1.40285 v 0.14575 l 18.146528,0.004 18.14652,0.004 0.71005,0.16468 c 0.39052,0.0906 0.91998,0.31678 1.17658,0.50269 l 0.46654,0.338 2.58387,3.8373 2.58388,3.8373 h 1.07234 1.07235 z m 8.68913,8.3e-4 -3.6241,-5.7924 h -1.06365 -1.06366 l 3.6241,5.7924 3.6241,5.79241 h 1.06366 1.06365 z m 8.68861,0 -3.6241,-5.7924 h -1.06365 -1.06366 l 3.6241,5.7924 3.6241,5.79241 h 1.06366 1.06365 z m 84.012344,0 v -5.7924 H 130.03432 89.496746 l 3.6241,5.7924 3.6241,5.79241 h 36.913474 36.91347 z"
       id="path1" /></g></svg>
